<?xml version="1.0" standalone="no"?><!DOCTYPE svg PUBLIC "-//W3C//DTD SVG 1.1//EN" "http://www.w3.org/Graphics/SVG/1.1/DTD/svg11.dtd"><svg t="1703144877173" class="icon" viewBox="0 0 1024 1024" version="1.1" xmlns="http://www.w3.org/2000/svg" p-id="1518" xmlns:xlink="http://www.w3.org/1999/xlink" width="200" height="200"><path d="M844.344889 620.145778c41.813333 99.669333 82.062222 199.964444 120.775111 300.885333-8.533333 8.021333-10.609778 12.686222-14.819556 14.307556a8.106667 8.106667 0 0 1-6.172444-0.199111l-189.866667-84.849778-84.053333 151.153778a18.944 18.944 0 0 1-34.446222-3.128889l-76.003556-223.687111c121.969778 7.651556 216.775111-43.832889 284.586667-154.453334z m-665.685333-2.417778c65.934222 112.64 160.654222 164.920889 284.216888 156.899556l-75.975111 223.687111a18.944 18.944 0 0 1-34.474666 3.128889l-84.110223-151.153778-189.496888 84.764444a8.561778 8.561778 0 0 1-6.513778 0.170667c-4.437333-1.678222-6.656-6.599111-14.705778-14.705778a9541.489778 9541.489778 0 0 1 121.059556-302.791111zM503.921778 0c195.356444 0 353.763556 160.711111 353.763555 358.940444 0 198.257778-158.435556 358.940444-353.792 358.940445-195.328 0-353.706667-160.711111-353.706666-358.968889C150.186667 160.711111 308.565333 0 503.921778 0z m-15.246222 145.464889l-1.792 2.901333-54.072889 111.217778-121.571556 17.92a18.944 18.944 0 0 0-12.771555 29.610667l2.247111 2.616889 88.120889 87.125333-20.736 122.737778a18.944 18.944 0 0 0 24.433777 21.191111l3.128889-1.308445 108.259556-57.742222 108.259555 57.742222a18.944 18.944 0 0 0 27.875556-16.440889l-0.284445-3.413333-20.764444-122.737778 88.149333-87.153777a18.944 18.944 0 0 0-7.224889-31.431112l-3.356444-0.768-121.514667-17.948444-54.129777-111.217778a18.944 18.944 0 0 0-32.256-2.901333z" fill="#FF6D21" p-id="1519"></path></svg>