<?xml version="1.0" standalone="no"?><!DOCTYPE svg PUBLIC "-//W3C//DTD SVG 1.1//EN" "http://www.w3.org/Graphics/SVG/1.1/DTD/svg11.dtd"><svg t="1698308193756" class="icon" viewBox="0 0 1024 1024" version="1.1" xmlns="http://www.w3.org/2000/svg" p-id="2085" xmlns:xlink="http://www.w3.org/1999/xlink" width="200" height="200"><path d="M947.514938 445.512986h-401.921499l-36.292912 36.292911h438.114431c19.996095 0 36.292912 16.296817 36.292912 36.292912v335.934388H331.135325v-193.962117l-36.292911 36.292911v255.150166c0 40.092169 32.493654 72.485843 72.485842 72.485843h580.086702c40.092169 0 72.485843-32.493654 72.485843-72.485843V517.998828c0.09998-39.992189-32.393673-72.485843-72.385863-72.485842z m0 542.194102H367.328256c-19.996095 0-36.292912-16.296817-36.292911-36.292911v-61.188049h652.672525v61.188049c0 19.996095-16.196837 36.292912-36.192932 36.292911z" fill="#BFCBD9" p-id="2086"></path><path d="M950.314392 554.29174h-62.487796l-54.389377 144.971685H895.925015zM384.024995 663.070494h36.292912v36.292912H384.024995zM456.510838 663.070494h36.292911v36.292912h-36.292911zM528.99668 663.070494h36.292912v36.292912H528.99668zM676.267916 699.263425h36.292912l54.389377-144.971685h-36.292912zM747.454013 699.263425h36.292911l54.389378-144.971685h-36.292912zM18.896309 361.029486v69.986331h147.071275v130.974419h69.986331v-130.974419H383.02519v-69.986331H235.953915v-79.184534H383.02519v-69.986331H244.652216L397.72232 0.09998h-97.181019l-99.580551 203.360282L101.380199 0.09998H4.19918l153.070103 211.758641H18.896309v69.986331h147.071275v79.184534zM30.649014 834.131084L772.676087 92.104011l37.114751 37.115751L67.763765 871.246835z" fill="#BFCBD9" p-id="2087"></path></svg>